<svg width="52" height="16" viewBox="0 0 52 16" fill="none" xmlns="http://www.w3.org/2000/svg">
<g clip-path="url(#clip0)">
<path d="M-0.12 2.73333H6.04C7.06667 2.73333 7.80978 2.968 8.26933 3.43733C8.73867 3.89689 8.97333 4.64 8.97333 5.66667V6.98667C8.97333 7.79822 8.83644 8.42889 8.56267 8.87867C8.29867 9.32844 7.87333 9.62667 7.28667 9.77333L9.12 13H6.26L4.57333 9.92H2.52V13H-0.12V2.73333ZM6.33333 5.66667C6.33333 5.08 6.04 4.78667 5.45333 4.78667H2.52V7.86667H5.45333C6.04 7.86667 6.33333 7.57333 6.33333 6.98667V5.66667ZM13.516 5.52V13H10.9493V7.5H9.84932V5.52H13.516ZM10.9493 2.58667H13.516V4.64H10.9493V2.58667ZM20.4872 13L20.3406 12.2667C19.881 12.5698 19.4068 12.7947 18.9179 12.9413C18.4388 13.0782 18.033 13.1467 17.7006 13.1467H17.0406C16.3757 13.1467 15.8428 12.9462 15.4419 12.5453C15.041 12.1444 14.8406 11.6116 14.8406 10.9467V7.57333C14.8406 6.84 15.0459 6.268 15.4566 5.85733C15.877 5.43689 16.4539 5.22667 17.1872 5.22667H20.1939V2.73333H22.7606V13H20.4872ZM18.4339 11.02C18.9521 11.02 19.5388 10.9222 20.1939 10.7267V7.20667H17.9939C17.6028 7.20667 17.4072 7.40222 17.4072 7.79333V10.5067C17.4072 10.6533 17.4561 10.7756 17.5539 10.8733C17.6517 10.9711 17.7739 11.02 17.9206 11.02H18.4339ZM27.2322 6.91333C26.8411 6.91333 26.6455 7.10889 26.6455 7.5V8.30667H29.1389V7.5C29.1389 7.10889 28.9433 6.91333 28.5522 6.91333H27.2322ZM31.4122 12.8533C29.5251 13.0489 27.814 13.1467 26.2789 13.1467C25.614 13.1467 25.0811 12.9462 24.6802 12.5453C24.2793 12.1444 24.0789 11.6116 24.0789 10.9467V7.42667C24.0789 6.69333 24.2842 6.12133 24.6949 5.71067C25.1153 5.29022 25.6922 5.08 26.4255 5.08H29.3589C30.0922 5.08 30.6642 5.29022 31.0749 5.71067C31.4953 6.12133 31.7055 6.69333 31.7055 7.42667V10.14H26.6455V10.7267C26.6455 10.8733 26.6944 10.9956 26.7922 11.0933C26.89 11.1911 27.0122 11.24 27.1589 11.24C28.1269 11.24 29.5446 11.1667 31.4122 11.02V12.8533ZM37.4931 7.35333C36.8771 7.35333 36.2416 7.5 35.5865 7.79333V13H33.0198V5.22667H35.2931L35.4398 6.18C36.2807 5.44667 37.1607 5.08 38.0798 5.08H38.7398V7.35333H37.4931ZM43.7259 13C43.0708 13.0978 42.445 13.1467 41.8486 13.1467C41.2619 13.1467 40.7681 12.9462 40.3672 12.5453C39.9663 12.1444 39.7659 11.6116 39.7659 10.9467V2.73333H42.3326V10.58C42.3326 10.7267 42.3814 10.8489 42.4792 10.9467C42.577 11.0444 42.6992 11.0933 42.8459 11.0933H43.7259V13ZM46.2164 15.64C45.6981 15.64 45.0626 15.5911 44.3097 15.4933V13.5867H45.6297C46.0012 13.5867 46.2408 13.484 46.3484 13.2787C46.4657 13.0733 46.4461 12.7849 46.2897 12.4133L43.283 5.22667H45.9964L47.8297 10.2133L49.3697 5.22667H52.083L49.1497 13.2933C48.8661 14.0658 48.4995 14.6476 48.0497 15.0387C47.5999 15.4396 46.9888 15.64 46.2164 15.64Z" fill="white"/>
</g>
<defs>
<clipPath id="clip0">
<rect width="52" height="16" fill="white"/>
</clipPath>
</defs>
</svg>
